<?xml version="1.0" standalone="no"?>
<!DOCTYPE svg PUBLIC "-//W3C//DTD SVG 20010904//EN"
 "http://www.w3.org/TR/2001/REC-SVG-20010904/DTD/svg10.dtd">
<svg version="1.0" xmlns="http://www.w3.org/2000/svg"
 width="523.000000pt" height="523.000000pt" viewBox="0 0 523.000000 523.000000"
 preserveAspectRatio="xMidYMid meet">
<metadata>
Created by potrace 1.11, written by Peter Selinger 2001-2013
</metadata>
<g transform="translate(0.000000,523.000000) scale(0.100000,-0.100000)"
fill="#000000" stroke="none">
<path d="M1161 5220 c-255 -54 -451 -211 -451 -362 l0 -48 -38 0 c-104 0 -200
-70 -280 -205 -147 -249 -139 -578 19 -835 l31 -50 -45 -108 c-117 -282 -173
-536 -184 -842 -12 -330 49 -677 168 -965 l29 -71 -58 -59 c-85 -89 -108 -197
-63 -300 26 -58 172 -278 245 -369 482 -599 1168 -953 1924 -995 706 -39 1374
196 1914 676 93 82 144 137 332 353 63 72 118 178 135 258 23 110 8 240 -38
331 l-20 38 48 119 c192 474 229 994 106 1484 -29 115 -92 300 -134 393 l-30
67 29 47 c17 26 43 81 59 123 87 224 80 453 -19 655 -77 158 -170 240 -284
252 l-53 6 -6 53 c-12 114 -94 207 -252 284 -288 141 -633 92 -903 -127 l-42
-35 -128 31 c-391 93 -796 89 -1172 -12 l-85 -23 -82 62 c-92 70 -197 124
-305 155 -83 24 -292 35 -367 19z m301 -209 c202 -52 377 -195 471 -386 42
-85 77 -206 77 -269 0 -67 3 -68 132 -30 184 52 312 67 523 61 192 -6 304 -24
444 -72 41 -14 77 -25 81 -25 3 0 12 41 18 90 22 162 89 304 199 421 210 222
512 290 757 168 82 -40 135 -87 142 -125 5 -28 -16 -57 -291 -395 -163 -200
-308 -379 -322 -397 l-26 -33 24 -24 24 -24 392 319 c423 345 424 345 477 298
37 -33 94 -133 117 -208 27 -83 29 -228 6 -320 -32 -123 -91 -225 -186 -321
-50 -50 -115 -103 -156 -127 -62 -36 -180 -81 -257 -97 l-27 -5 38 -83 c51
-109 105 -279 127 -402 29 -152 26 -482 -4 -622 -96 -441 -344 -813 -706
-1055 -843 -563 -1981 -255 -2425 657 -191 391 -218 855 -75 1266 19 56 51
133 70 171 l34 68 -27 5 c-194 42 -338 125 -459 267 -130 152 -189 365 -151
545 19 89 63 184 112 241 66 76 50 85 496 -278 l393 -320 24 24 24 24 -279
343 c-154 189 -299 366 -322 394 -65 78 -54 118 51 185 55 36 149 73 208 83
67 11 182 6 252 -12z m1369 -141 c178 -18 301 -47 327 -76 27 -31 28 -74 3
-105 -24 -30 -60 -30 -216 1 -171 33 -493 33 -670 1 -66 -12 -134 -25 -152
-28 -69 -12 -112 86 -60 135 63 60 493 99 768 72z m-2146 -1372 c14 -13 26
-34 27 -48 0 -14 -15 -75 -35 -137 -133 -416 -130 -859 8 -1270 25 -73 45
-143 45 -157 0 -33 -29 -65 -67 -72 -55 -11 -83 29 -136 192 -78 239 -107 426
-107 684 0 91 5 204 10 250 28 230 110 523 157 559 33 27 66 26 98 -1z m3949
-1 c13 -13 37 -66 54 -118 156 -469 149 -970 -19 -1439 -43 -119 -89 -155
-147 -114 -46 32 -45 53 7 212 146 437 145 886 -4 1321 -14 41 -25 81 -25 89
0 24 57 72 85 72 14 0 36 -10 49 -23z m-3621 -1699 c14 -13 44 -54 66 -92 31
-53 41 -80 41 -114 0 -85 -61 -162 -145 -183 -37 -9 -46 -17 -55 -43 -12 -38
-74 -101 -113 -115 -47 -18 -126 -13 -175 10 -35 18 -55 39 -98 104 -55 85
-66 126 -41 157 10 13 365 242 442 286 30 17 51 14 78 -10z m3304 -90 c46 -43
26 -98 -50 -132 -88 -39 -128 -106 -114 -192 21 -129 171 -189 280 -112 40 28
69 91 65 140 l-3 41 -38 -56 c-47 -67 -82 -85 -125 -63 -31 16 -42 34 -42 68
0 22 186 288 201 288 5 0 30 -19 56 -42 141 -131 139 -350 -6 -480 -158 -143
-414 -92 -508 100 -24 50 -28 69 -28 147 0 74 4 98 23 138 66 133 223 217 289
155z m-3043 -269 c19 -15 26 -30 26 -55 0 -31 -15 -51 -140 -184 -116 -123
-140 -153 -140 -178 0 -32 38 -72 69 -72 9 0 83 70 165 155 128 134 153 155
179 155 40 0 77 -35 77 -72 0 -20 -16 -46 -57 -91 -144 -158 -258 -270 -289
-283 -166 -69 -361 127 -286 288 17 38 279 323 316 345 30 18 50 16 80 -8z
m2597 -140 c11 -5 80 -91 153 -189 144 -191 157 -221 137 -297 -15 -55 -49
-102 -99 -137 -34 -24 -55 -31 -108 -34 -111 -7 -127 4 -281 212 -77 104 -133
189 -133 202 0 36 11 54 42 70 50 26 72 7 206 -172 110 -148 125 -164 152
-164 36 0 70 31 70 65 0 15 -43 81 -120 185 -97 130 -120 166 -120 194 0 32
18 57 50 69 23 8 30 8 51 -4z m-2202 -194 c23 -22 25 -36 37 -187 7 -90 13
-181 14 -203 0 -38 4 -33 74 100 41 77 83 146 95 153 38 26 111 -14 111 -60 0
-33 -228 -475 -256 -497 -44 -35 -111 -25 -135 21 -9 17 -37 292 -39 388 0 17
-24 -21 -73 -115 -58 -112 -78 -142 -100 -149 -38 -14 -79 3 -96 39 -14 29
-12 36 109 272 104 204 128 244 154 257 38 19 73 13 105 -19z m1805 -88 c21
-15 206 -490 206 -529 0 -38 -32 -68 -73 -68 -45 0 -59 18 -99 121 l-33 87
-77 -30 c-43 -16 -78 -34 -78 -39 0 -4 14 -42 30 -84 38 -95 38 -127 4 -154
-33 -26 -65 -27 -92 -3 -12 10 -61 121 -118 269 -88 231 -95 255 -85 282 12
27 47 51 76 51 28 0 64 -47 90 -120 15 -41 31 -78 35 -83 6 -7 138 37 151 51
4 4 -8 45 -26 92 -40 101 -41 110 -14 144 23 29 72 36 103 13z m-1305 -122
c30 -15 45 -46 136 -277 21 -54 41 -98 45 -98 3 0 17 65 29 145 21 129 27 148
49 165 13 11 36 20 49 20 28 0 73 -41 73 -67 0 -10 -20 -133 -44 -273 -41
-237 -46 -256 -70 -277 -36 -31 -89 -31 -120 0 -12 12 -53 100 -91 195 -48
120 -71 168 -76 155 -3 -10 -16 -76 -28 -148 -13 -78 -28 -137 -38 -147 -23
-25 -85 -24 -108 2 -25 27 -24 43 24 324 41 244 49 267 96 287 29 12 43 11 74
-6z m821 -35 c30 -30 25 -66 -31 -242 l-50 -160 10 -84 c14 -115 -4 -154 -72
-154 -45 0 -67 38 -78 138 -10 89 -12 95 -94 239 -91 159 -102 196 -65 233 26
26 74 26 100 0 11 -11 38 -57 61 -102 l42 -83 13 40 c7 22 20 66 29 98 9 32
25 67 35 77 26 26 74 26 100 0z"/>
<path d="M1202 4854 c-106 -28 -108 -16 35 -192 71 -87 198 -244 283 -349 85
-106 158 -192 163 -192 4 -1 43 20 87 45 l80 47 0 79 c0 159 -59 297 -175 413
-137 137 -312 193 -473 149z"/>
<path d="M3796 4855 c-173 -44 -335 -195 -396 -368 -26 -73 -41 -179 -33 -234
5 -41 9 -45 83 -88 42 -25 79 -45 83 -45 3 0 133 156 288 347 261 321 281 347
263 360 -50 36 -197 51 -288 28z"/>
<path d="M687 4375 c-29 -62 -40 -156 -27 -236 41 -240 264 -442 515 -466 57
-5 64 -4 74 16 7 11 39 53 71 92 33 39 60 74 59 78 0 5 -589 487 -652 533 -23
17 -24 17 -40 -17z"/>
<path d="M4175 4138 c-181 -148 -331 -273 -333 -278 -2 -4 30 -49 70 -99 82
-103 85 -104 207 -76 190 45 368 208 423 388 16 55 19 86 16 160 -4 84 -29
178 -47 176 -3 0 -154 -122 -336 -271z"/>
<path d="M2445 4223 c-256 -33 -488 -121 -690 -261 -320 -222 -530 -537 -617
-923 -20 -90 -23 -131 -23 -309 0 -178 3 -219 23 -309 45 -200 121 -377 235
-546 79 -117 265 -303 382 -382 213 -144 462 -235 703 -259 l72 -7 0 121 0
120 -157 3 c-158 4 -158 4 -234 40 -342 163 -342 634 0 798 l76 36 385 5 c364
5 388 6 430 26 179 83 216 326 70 457 -73 67 -91 71 -322 75 -199 4 -207 5
-227 26 -22 23 -22 24 -21 659 l0 637 -27 -1 c-16 -1 -41 -4 -58 -6z m-110
-113 c46 -17 57 -65 53 -222 -3 -139 -3 -140 -31 -164 -38 -32 -72 -31 -108 5
l-29 29 0 144 c0 154 7 184 50 205 30 15 32 16 65 3z m-170 -512 c26 -31 27
-34 23 -144 -3 -124 -13 -147 -78 -191 -29 -21 -45 -23 -144 -23 -71 1 -117 5
-127 13 -27 20 -41 56 -34 88 10 46 39 59 131 59 l82 0 4 91 c4 85 6 94 32
115 39 34 78 31 111 -8z m-460 -423 c16 -15 25 -36 25 -55 0 -19 -9 -40 -25
-55 -23 -24 -28 -25 -178 -25 -141 0 -157 2 -181 21 -34 27 -36 82 -4 116 21
22 27 23 180 23 155 0 159 -1 183 -25z"/>
<path d="M2690 3650 l0 -580 138 0 c197 0 285 -26 379 -113 151 -139 190 -339
103 -523 -38 -79 -127 -164 -217 -207 l-68 -32 -385 -5 c-364 -5 -387 -6 -430
-26 -67 -31 -106 -68 -137 -131 -67 -138 -12 -303 125 -370 55 -27 63 -28 255
-33 256 -6 237 11 237 -226 l0 -174 29 0 c58 0 259 40 349 69 328 108 597 311
788 596 158 238 238 482 251 770 35 796 -556 1477 -1354 1560 l-63 6 0 -581z
m283 438 c15 -17 17 -42 17 -180 0 -155 -1 -159 -25 -183 -33 -33 -70 -32
-106 4 l-29 29 0 149 c0 120 3 153 16 171 32 46 93 50 127 10z m192 -483 c23
-22 25 -32 25 -115 l0 -90 88 0 c81 0 90 -2 112 -25 33 -35 31 -81 -5 -112
-27 -23 -33 -24 -144 -21 -101 3 -120 6 -147 25 -52 37 -64 76 -64 202 0 105
1 113 25 136 15 16 36 25 55 25 19 0 40 -9 55 -25z m710 -430 c16 -15 25 -36
25 -55 0 -19 -9 -40 -25 -55 -23 -24 -28 -25 -178 -25 -141 0 -157 2 -181 21
-34 27 -36 82 -4 116 21 22 27 23 180 23 155 0 159 -1 183 -25z"/>
<path d="M912 1619 c-37 -24 -40 -42 -10 -63 39 -28 79 14 55 59 l-12 24 -33
-20z"/>
<path d="M708 1488 c-27 -16 -48 -33 -48 -37 0 -5 9 -20 21 -35 24 -31 68 -35
92 -8 22 24 21 50 -1 83 l-17 26 -47 -29z"/>
</g>
</svg>
